<svg xmlns="http://www.w3.org/2000/svg" viewBox="0 0 1000 1000" width="100%" height="100%">
  <defs>
    <style>
      .interactive {
        cursor: pointer;
        transition: fill 0.3s ease, fill-opacity 0.3s ease, stroke 0.3s ease, stroke-opacity 0.3s ease, filter 0.3s ease;
      }
      /* Temporary: Set all overlays to be visible so the user can inspect the alignment */
      .light-off {
        fill: #ffeb3b !important;
        fill-opacity: 0.25 !important;
        stroke: #ffeb3b !important;
        stroke-width: 2 !important;
        stroke-opacity: 0.7 !important;
        filter: drop-shadow(0px 0px 15px rgba(255, 235, 59, 0.8)) !important;
      }
      .light-on {
        fill: #ffeb3b !important;
        fill-opacity: 0.25 !important;
        stroke: #ffeb3b !important;
        stroke-width: 2 !important;
        stroke-opacity: 0.7 !important;
        filter: drop-shadow(0px 0px 15px rgba(255, 235, 59, 0.8)) !important;
      }
    </style>
  </defs>

  <!-- Embed the preferred clean 3D isometric floorplan background -->
  <image href="/local/isometric_floorplan.jpg" x="0" y="0" width="1000" height="1000" />

  <!-- ================= OVERLAID INTERACTIVE POLYGONS ================= -->

  <!-- TV Lights (switch.tv_lights) - Correctly aligned to the TV screen frame on the brick wall -->
  <polygon id="switch.tv_lights" class="interactive light-off" 
           points="154,310 256,268 256,330 154,372" />

  <!-- Living Room Main Couch (light.living_room_living_room) -->
  <polygon id="light.living_room_living_room" class="interactive light-off" 
           points="140,520 280,625 360,575 470,490 400,440 265,505" />

  <!-- Accent Coffee Table / Couch Lamp (light.hue_color_lamp_1) -->
  <polygon id="light.hue_color_lamp_1" class="interactive light-off" 
           points="250,480 290,515 340,485 300,450" />

  <!-- Dining Table (switch.tablelight) -->
  <polygon id="switch.tablelight" class="interactive light-off" 
           points="320,740 470,850 540,795 390,685" />

  <!-- Kitchen Island (switch.kitchenisland) -->
  <polygon id="switch.kitchenisland" class="interactive light-off" 
           points="520,440 705,570 790,500 630,360" />

  <!-- Kitchen Counter Area (switch.kitchen) -->
  <polygon id="switch.kitchen" class="interactive light-off" 
           points="680,350 820,320 945,415 975,380 725,190 680,225" />

</svg>
